<?xml version="1.0" encoding="UTF-8"?>
<svg id="katman_1" data-name="katman 1" xmlns="http://www.w3.org/2000/svg" version="1.1" viewBox="0 0 202 68.4">
  <defs>
    <style>
      .cls-1 {
        fill: #ff671e;
      }

      .cls-1, .cls-2 {
        stroke-width: 0px;
      }

      .cls-2 {
        fill: #000;
      }
    </style>
  </defs>
  <path class="cls-2" d="M101.3,31c0,.8.1,1.5.1,2.1,0,7.3-5.2,12.7-12.4,12.7s-13-5.6-13-12.8,5.7-12.8,12.9-12.8,10,2.4,11.8,7.4l-4.5,1.6c-1.8-3.4-4.6-4.3-7.3-4.3-4.4,0-7.8,3.5-7.8,8.1s3.5,8.2,8.1,8.2,6.5-2.2,7.4-5.7h-8.6v-4.5h13.4Z"/>
  <path class="cls-2" d="M120.6,45.3l-8.1-9h-2.6v9h-5v-24.5h11.7c5.3,0,8.8,3.1,8.8,7.8s-2.7,7-7,7.6l8.2,9.1h-6.1ZM116.7,31.8c2.3,0,3.8-1.3,3.8-3.3s-1.5-3.3-3.8-3.3h-6.8v6.5h6.8Z"/>
  <path class="cls-2" d="M153.5,33.1c0,7.1-5.7,12.8-12.9,12.8s-12.9-5.6-12.9-12.8,5.7-12.8,12.9-12.8,12.9,5.7,12.9,12.8M148.5,33.1c0-4.7-3.5-8.2-7.9-8.2s-7.9,3.5-7.9,8.2,3.5,8.1,7.9,8.1,7.9-3.4,7.9-8.1"/>
  <path class="cls-2" d="M177.5,34.3c0,6.9-4.2,11.5-10.5,11.5s-10.8-4.6-10.8-11.5v-13.5h5v13.5c0,4.1,2.3,6.8,5.8,6.8s5.6-2.7,5.6-6.8v-13.5h5v13.5Z"/>
  <path class="cls-2" d="M192.5,20.8c5.6,0,9.1,3.3,9.1,8.2s-3.4,8.3-9.1,8.3h-6.4v8h-5v-24.5h11.4ZM192.5,32.8c2.7,0,4.1-1.5,4.1-3.8s-1.5-3.7-4.1-3.7h-6.4v7.5h6.4Z"/>
  <polygon class="cls-1" points="8.5 30.9 19.2 30.9 19.2 37.7 8.5 37.7 8.5 45 .5 45 .5 20.6 20.6 20.6 20.6 27.4 8.5 27.4 8.5 30.9"/>
  <polygon class="cls-1" points="42.1 45 23.1 45 23.1 20.6 31.2 20.6 31.2 38.2 42.1 38.2 42.1 45"/>
  <path class="cls-1" d="M69.6,32.8c0,7.1-5.8,12.7-13.3,12.7s-13.3-5.6-13.3-12.7,5.8-12.7,13.3-12.7,13.3,5.6,13.3,12.7M61.5,32.8c0-3.2-2.1-5.6-5.2-5.6s-5.2,2.4-5.2,5.6,2.1,5.6,5.2,5.6,5.2-2.4,5.2-5.6"/>
  <path class="cls-1" d="M75.7,2.4c-3.7-1.2-8.4,2-12.9,8.1-.2.2.2.5.3.3,2.8-3,5.7-4.4,8-3.7,5.5,1.8,6.1,15.3,1.3,30.1-4.8,14.8-13.2,25.3-18.7,23.5-1.6-.5-2.8-2-3.6-4.3,0-.3-.5-.2-.4.1.7,5,2.5,8.4,5.3,9.3,6.7,2.2,16.8-10.3,22.5-27.8,5.7-17.5,4.9-33.5-1.8-35.7"/>
</svg>